<svg width="960" height="360" viewBox="0 0 960 360" fill="none" xmlns="http://www.w3.org/2000/svg">
<g filter="url(#filter0_d_23_719)">
<rect x="64" y="40" width="160" height="36" rx="8" fill="white"/>
<path d="M132.775 63.2529C135.318 63.2529 136.904 61.7832 136.904 59.5957V53.1357H134.84V59.4111C134.84 60.6895 134.102 61.5029 132.775 61.5029C131.449 61.5029 130.704 60.6895 130.704 59.4111V53.1357H128.64V59.5957C128.64 61.79 130.246 63.2529 132.775 63.2529ZM142.093 63.1572C144.021 63.1572 145.395 62.1865 145.395 60.6963V60.6895C145.395 59.5752 144.69 58.9463 143.187 58.625L141.936 58.3584C141.156 58.1875 140.876 57.9551 140.876 57.5518V57.5449C140.876 57.0391 141.368 56.7178 142.059 56.7178C142.804 56.7178 143.248 57.0938 143.357 57.4971L143.364 57.5312H145.217V57.5039C145.135 56.2939 144.041 55.3096 142.065 55.3096C140.186 55.3096 138.928 56.2529 138.928 57.668V57.6748C138.928 58.8027 139.639 59.5068 141.074 59.8145L142.332 60.0811C143.098 60.252 143.398 60.5049 143.398 60.9082V60.9219C143.398 61.4209 142.879 61.749 142.113 61.749C141.327 61.749 140.869 61.4141 140.712 60.9492L140.698 60.9219H138.736L138.743 60.9492C138.887 62.2412 140.049 63.1572 142.093 63.1572ZM150.337 63.1572C152.538 63.1572 153.509 61.8857 153.741 60.9424L153.755 60.874H151.896L151.875 60.915C151.738 61.2021 151.253 61.667 150.378 61.667C149.318 61.667 148.655 60.9492 148.635 59.7119H153.816V59.0898C153.816 56.8135 152.449 55.3096 150.255 55.3096C148.061 55.3096 146.659 56.8477 146.659 59.2402V59.2471C146.659 61.6602 148.047 63.1572 150.337 63.1572ZM150.289 56.8066C151.157 56.8066 151.779 57.3672 151.902 58.4609H148.655C148.778 57.3945 149.421 56.8066 150.289 56.8066ZM155.45 63H157.446V58.7891C157.446 57.7227 158.164 57.0732 159.299 57.0732C159.606 57.0732 159.914 57.1211 160.215 57.1895V55.4463C160.017 55.3916 159.736 55.3506 159.47 55.3506C158.492 55.3506 157.809 55.8291 157.569 56.6426H157.446V55.4736H155.45V63Z" fill="black"/>
<rect x="63.5" y="39.5" width="161" height="37" rx="8.5" stroke="#CBCFDA"/>
</g>
<g filter="url(#filter1_d_23_719)">
<rect x="64" y="100" width="160" height="36" rx="8" fill="white"/>
<path d="M125.215 123H127.163L129.009 116.355H129.118L130.984 123H132.919L135.537 113.136H133.404L131.88 120.184H131.771L129.938 113.136H128.195L126.397 120.184H126.288L124.75 113.136H122.604L125.215 123ZM138.326 123.116C139.311 123.116 140.104 122.699 140.486 122.002H140.609V123H142.578V117.859C142.578 116.253 141.45 115.31 139.454 115.31C137.561 115.31 136.316 116.185 136.159 117.504L136.152 117.565H137.998L138.012 117.538C138.169 117.094 138.627 116.841 139.345 116.841C140.165 116.841 140.609 117.21 140.609 117.859V118.481L138.791 118.591C136.918 118.7 135.872 119.493 135.872 120.847V120.86C135.872 122.228 136.891 123.116 138.326 123.116ZM137.82 120.737V120.724C137.82 120.177 138.237 119.855 139.092 119.801L140.609 119.705V120.259C140.609 121.052 139.919 121.66 138.996 121.66C138.306 121.66 137.82 121.312 137.82 120.737ZM144.602 123H146.598V112.596H144.602V123ZM148.73 123H150.727V112.596H148.73V123ZM156.1 123.157C158.301 123.157 159.271 121.886 159.504 120.942L159.518 120.874H157.658L157.638 120.915C157.501 121.202 157.016 121.667 156.141 121.667C155.081 121.667 154.418 120.949 154.397 119.712H159.579V119.09C159.579 116.813 158.212 115.31 156.018 115.31C153.823 115.31 152.422 116.848 152.422 119.24V119.247C152.422 121.66 153.81 123.157 156.1 123.157ZM156.052 116.807C156.92 116.807 157.542 117.367 157.665 118.461H154.418C154.541 117.395 155.184 116.807 156.052 116.807ZM164.337 123.027C164.72 123.027 165.089 122.986 165.335 122.938V121.455C165.144 121.476 165.007 121.489 164.747 121.489C164.07 121.489 163.783 121.188 163.783 120.512V116.978H165.335V115.474H163.783V113.676H161.767V115.474H160.604V116.978H161.767V120.97C161.767 122.433 162.505 123.027 164.337 123.027Z" fill="black"/>
<rect x="63.5" y="99.5" width="161" height="37" rx="8.5" stroke="#CBCFDA"/>
</g>
<g filter="url(#filter2_d_23_719)">
<rect x="64" y="160" width="160" height="36" rx="8" fill="white"/>
<path d="M110.135 183H112.199V179.391H113.888L115.727 183H118.064L115.986 179.083C117.114 178.639 117.771 177.552 117.771 176.287V176.273C117.771 174.332 116.485 173.136 114.243 173.136H110.135V183ZM112.199 177.887V174.749H113.99C115.022 174.749 115.658 175.364 115.658 176.314V176.328C115.658 177.299 115.05 177.887 114.018 177.887H112.199ZM119.855 183H121.92V179.89H123.923C126.001 179.89 127.389 178.55 127.389 176.52V176.506C127.389 174.476 126.001 173.136 123.923 173.136H119.855V183ZM123.417 174.77C124.6 174.77 125.297 175.392 125.297 176.513V176.526C125.297 177.647 124.6 178.276 123.417 178.276H121.92V174.77H123.417ZM133.479 183.253C135.858 183.253 137.547 181.845 137.759 179.78L137.766 179.705H135.756L135.742 179.76C135.523 180.812 134.669 181.503 133.486 181.503C131.928 181.503 130.964 180.19 130.964 178.071V178.058C130.964 175.938 131.928 174.633 133.479 174.633C134.655 174.633 135.537 175.385 135.749 176.492V176.54H137.759V176.458C137.567 174.373 135.817 172.883 133.479 172.883C130.615 172.883 128.852 174.858 128.852 178.058V178.071C128.852 181.271 130.622 183.253 133.479 183.253ZM143.275 183H145.251V176.69H145.36L149.927 183H151.636V173.136H149.66V179.418H149.551L144.998 173.136H143.275V183ZM157.18 183.157C159.497 183.157 160.892 181.694 160.892 179.24V179.227C160.892 176.793 159.477 175.31 157.18 175.31C154.883 175.31 153.468 176.8 153.468 179.227V179.24C153.468 181.688 154.862 183.157 157.18 183.157ZM157.18 181.592C156.113 181.592 155.512 180.724 155.512 179.24V179.227C155.512 177.757 156.12 176.875 157.18 176.875C158.232 176.875 158.848 177.757 158.848 179.227V179.24C158.848 180.724 158.239 181.592 157.18 181.592ZM165.205 183.116C166.265 183.116 167.064 182.645 167.454 181.831H167.577V183H169.573V172.596H167.577V176.677H167.454C167.078 175.856 166.237 175.351 165.205 175.351C163.298 175.351 162.149 176.807 162.149 179.227V179.24C162.149 181.646 163.325 183.116 165.205 183.116ZM165.882 181.462C164.829 181.462 164.18 180.628 164.18 179.24V179.227C164.18 177.853 164.829 177.005 165.882 177.005C166.935 177.005 167.598 177.853 167.598 179.233V179.247C167.598 180.628 166.941 181.462 165.882 181.462ZM174.946 183.157C177.147 183.157 178.118 181.886 178.351 180.942L178.364 180.874H176.505L176.484 180.915C176.348 181.202 175.862 181.667 174.987 181.667C173.928 181.667 173.265 180.949 173.244 179.712H178.426V179.09C178.426 176.813 177.059 175.31 174.864 175.31C172.67 175.31 171.269 176.848 171.269 179.24V179.247C171.269 181.66 172.656 183.157 174.946 183.157ZM174.898 176.807C175.767 176.807 176.389 177.367 176.512 178.461H173.265C173.388 177.395 174.03 176.807 174.898 176.807Z" fill="black"/>
<rect x="63.5" y="159.5" width="161" height="37" rx="8.5" stroke="#CBCFDA"/>
</g>
<g filter="url(#filter3_d_23_719)">
<rect x="288" y="90" width="160" height="56" rx="8" fill="white"/>
<path d="M329.979 113H332.043V104.838H335.003V103.136H327.019V104.838H329.979V113ZM335.837 113H337.833V108.789C337.833 107.723 338.551 107.073 339.686 107.073C339.993 107.073 340.301 107.121 340.602 107.189V105.446C340.403 105.392 340.123 105.351 339.856 105.351C338.879 105.351 338.195 105.829 337.956 106.643H337.833V105.474H335.837V113ZM343.849 113.116C344.833 113.116 345.626 112.699 346.009 112.002H346.132V113H348.101V107.859C348.101 106.253 346.973 105.31 344.977 105.31C343.083 105.31 341.839 106.185 341.682 107.504L341.675 107.565H343.521L343.534 107.538C343.691 107.094 344.149 106.841 344.867 106.841C345.688 106.841 346.132 107.21 346.132 107.859V108.481L344.313 108.591C342.44 108.7 341.395 109.493 341.395 110.847V110.86C341.395 112.228 342.413 113.116 343.849 113.116ZM343.343 110.737V110.724C343.343 110.177 343.76 109.855 344.614 109.801L346.132 109.705V110.259C346.132 111.052 345.441 111.66 344.519 111.66C343.828 111.66 343.343 111.312 343.343 110.737ZM350.056 113H352.052V108.646C352.052 107.627 352.612 106.964 353.535 106.964C354.479 106.964 354.916 107.524 354.916 108.584V113H356.912V108.133C356.912 106.335 356.01 105.31 354.335 105.31C353.262 105.31 352.517 105.822 352.175 106.636H352.052V105.474H350.056V113ZM361.841 113.157C363.769 113.157 365.143 112.187 365.143 110.696V110.689C365.143 109.575 364.438 108.946 362.935 108.625L361.684 108.358C360.904 108.188 360.624 107.955 360.624 107.552V107.545C360.624 107.039 361.116 106.718 361.807 106.718C362.552 106.718 362.996 107.094 363.105 107.497L363.112 107.531H364.965V107.504C364.883 106.294 363.789 105.31 361.813 105.31C359.934 105.31 358.676 106.253 358.676 107.668V107.675C358.676 108.803 359.387 109.507 360.822 109.814L362.08 110.081C362.846 110.252 363.146 110.505 363.146 110.908V110.922C363.146 111.421 362.627 111.749 361.861 111.749C361.075 111.749 360.617 111.414 360.46 110.949L360.446 110.922H358.484L358.491 110.949C358.635 112.241 359.797 113.157 361.841 113.157ZM368.827 113.116C369.812 113.116 370.604 112.699 370.987 112.002H371.11V113H373.079V107.859C373.079 106.253 371.951 105.31 369.955 105.31C368.062 105.31 366.817 106.185 366.66 107.504L366.653 107.565H368.499L368.513 107.538C368.67 107.094 369.128 106.841 369.846 106.841C370.666 106.841 371.11 107.21 371.11 107.859V108.481L369.292 108.591C367.419 108.7 366.373 109.493 366.373 110.847V110.86C366.373 112.228 367.392 113.116 368.827 113.116ZM368.321 110.737V110.724C368.321 110.177 368.738 109.855 369.593 109.801L371.11 109.705V110.259C371.11 111.052 370.42 111.66 369.497 111.66C368.807 111.66 368.321 111.312 368.321 110.737ZM378.35 113.157C380.312 113.157 381.487 112.104 381.692 110.464L381.699 110.423H379.854L379.84 110.45C379.662 111.202 379.177 111.592 378.356 111.592C377.29 111.592 376.695 110.751 376.695 109.227V109.213C376.695 107.709 377.283 106.875 378.356 106.875C379.211 106.875 379.71 107.354 379.84 108.085L379.847 108.099H381.706V108.078C381.528 106.396 380.346 105.31 378.35 105.31C375.991 105.31 374.665 106.738 374.665 109.213V109.227C374.665 111.729 375.998 113.157 378.35 113.157ZM386.457 113.027C386.84 113.027 387.209 112.986 387.455 112.938V111.455C387.264 111.476 387.127 111.489 386.867 111.489C386.19 111.489 385.903 111.188 385.903 110.512V106.978H387.455V105.474H385.903V103.676H383.887V105.474H382.725V106.978H383.887V110.97C383.887 112.433 384.625 113.027 386.457 113.027ZM390.135 104.318C390.75 104.318 391.256 103.826 391.256 103.211C391.256 102.589 390.75 102.097 390.135 102.097C389.52 102.097 389.007 102.589 389.007 103.211C389.007 103.826 389.52 104.318 390.135 104.318ZM389.13 113H391.126V105.474H389.13V113ZM396.479 113.157C398.796 113.157 400.19 111.694 400.19 109.24V109.227C400.19 106.793 398.775 105.31 396.479 105.31C394.182 105.31 392.767 106.8 392.767 109.227V109.24C392.767 111.688 394.161 113.157 396.479 113.157ZM396.479 111.592C395.412 111.592 394.811 110.724 394.811 109.24V109.227C394.811 107.757 395.419 106.875 396.479 106.875C397.531 106.875 398.146 107.757 398.146 109.227V109.24C398.146 110.724 397.538 111.592 396.479 111.592ZM401.817 113H403.813V108.646C403.813 107.627 404.374 106.964 405.297 106.964C406.24 106.964 406.678 107.524 406.678 108.584V113H408.674V108.133C408.674 106.335 407.771 105.31 406.097 105.31C405.023 105.31 404.278 105.822 403.937 106.636H403.813V105.474H401.817V113ZM317.435 133.253C319.813 133.253 321.502 131.845 321.714 129.78L321.721 129.705H319.711L319.697 129.76C319.479 130.812 318.624 131.503 317.441 131.503C315.883 131.503 314.919 130.19 314.919 128.071V128.058C314.919 125.938 315.883 124.633 317.435 124.633C318.61 124.633 319.492 125.385 319.704 126.492V126.54H321.714V126.458C321.522 124.373 319.772 122.883 317.435 122.883C314.57 122.883 312.807 124.858 312.807 128.058V128.071C312.807 131.271 314.577 133.253 317.435 133.253ZM326.766 133.157C329.083 133.157 330.478 131.694 330.478 129.24V129.227C330.478 126.793 329.062 125.31 326.766 125.31C324.469 125.31 323.054 126.8 323.054 129.227V129.24C323.054 131.688 324.448 133.157 326.766 133.157ZM326.766 131.592C325.699 131.592 325.098 130.724 325.098 129.24V129.227C325.098 127.757 325.706 126.875 326.766 126.875C327.818 126.875 328.434 127.757 328.434 129.227V129.24C328.434 130.724 327.825 131.592 326.766 131.592ZM332.173 133H334.169V122.596H332.173V133ZM336.302 133H338.298V122.596H336.302V133ZM343.671 133.157C345.872 133.157 346.843 131.886 347.075 130.942L347.089 130.874H345.229L345.209 130.915C345.072 131.202 344.587 131.667 343.712 131.667C342.652 131.667 341.989 130.949 341.969 129.712H347.15V129.09C347.15 126.813 345.783 125.31 343.589 125.31C341.395 125.31 339.993 126.848 339.993 129.24V129.247C339.993 131.66 341.381 133.157 343.671 133.157ZM343.623 126.807C344.491 126.807 345.113 127.367 345.236 128.461H341.989C342.112 127.395 342.755 126.807 343.623 126.807ZM352.1 133.157C354.062 133.157 355.237 132.104 355.442 130.464L355.449 130.423H353.604L353.59 130.45C353.412 131.202 352.927 131.592 352.106 131.592C351.04 131.592 350.445 130.751 350.445 129.227V129.213C350.445 127.709 351.033 126.875 352.106 126.875C352.961 126.875 353.46 127.354 353.59 128.085L353.597 128.099H355.456V128.078C355.278 126.396 354.096 125.31 352.1 125.31C349.741 125.31 348.415 126.738 348.415 129.213V129.227C348.415 131.729 349.748 133.157 352.1 133.157ZM360.207 133.027C360.59 133.027 360.959 132.986 361.205 132.938V131.455C361.014 131.476 360.877 131.489 360.617 131.489C359.94 131.489 359.653 131.188 359.653 130.512V126.978H361.205V125.474H359.653V123.676H357.637V125.474H356.475V126.978H357.637V130.97C357.637 132.433 358.375 133.027 360.207 133.027ZM363.885 124.318C364.5 124.318 365.006 123.826 365.006 123.211C365.006 122.589 364.5 122.097 363.885 122.097C363.27 122.097 362.757 122.589 362.757 123.211C362.757 123.826 363.27 124.318 363.885 124.318ZM362.88 133H364.876V125.474H362.88V133ZM370.229 133.157C372.546 133.157 373.94 131.694 373.94 129.24V129.227C373.94 126.793 372.525 125.31 370.229 125.31C367.932 125.31 366.517 126.8 366.517 129.227V129.24C366.517 131.688 367.911 133.157 370.229 133.157ZM370.229 131.592C369.162 131.592 368.561 130.724 368.561 129.24V129.227C368.561 127.757 369.169 126.875 370.229 126.875C371.281 126.875 371.896 127.757 371.896 129.227V129.24C371.896 130.724 371.288 131.592 370.229 131.592ZM375.567 133H377.563V128.646C377.563 127.627 378.124 126.964 379.047 126.964C379.99 126.964 380.428 127.524 380.428 128.584V133H382.424V128.133C382.424 126.335 381.521 125.31 379.847 125.31C378.773 125.31 378.028 125.822 377.687 126.636H377.563V125.474H375.567V133ZM388.166 133H390.142V126.69H390.251L394.817 133H396.526V123.136H394.551V129.418H394.441L389.889 123.136H388.166V133ZM402.07 133.157C404.388 133.157 405.782 131.694 405.782 129.24V129.227C405.782 126.793 404.367 125.31 402.07 125.31C399.773 125.31 398.358 126.8 398.358 129.227V129.24C398.358 131.688 399.753 133.157 402.07 133.157ZM402.07 131.592C401.004 131.592 400.402 130.724 400.402 129.24V129.227C400.402 127.757 401.011 126.875 402.07 126.875C403.123 126.875 403.738 127.757 403.738 129.227V129.24C403.738 130.724 403.13 131.592 402.07 131.592ZM410.096 133.116C411.155 133.116 411.955 132.645 412.345 131.831H412.468V133H414.464V122.596H412.468V126.677H412.345C411.969 125.856 411.128 125.351 410.096 125.351C408.188 125.351 407.04 126.807 407.04 129.227V129.24C407.04 131.646 408.216 133.116 410.096 133.116ZM410.772 131.462C409.72 131.462 409.07 130.628 409.07 129.24V129.227C409.07 127.853 409.72 127.005 410.772 127.005C411.825 127.005 412.488 127.853 412.488 129.233V129.247C412.488 130.628 411.832 131.462 410.772 131.462ZM419.837 133.157C422.038 133.157 423.009 131.886 423.241 130.942L423.255 130.874H421.396L421.375 130.915C421.238 131.202 420.753 131.667 419.878 131.667C418.818 131.667 418.155 130.949 418.135 129.712H423.316V129.09C423.316 126.813 421.949 125.31 419.755 125.31C417.561 125.31 416.159 126.848 416.159 129.24V129.247C416.159 131.66 417.547 133.157 419.837 133.157ZM419.789 126.807C420.657 126.807 421.279 127.367 421.402 128.461H418.155C418.278 127.395 418.921 126.807 419.789 126.807Z" fill="black"/>
<rect x="287.5" y="89.5" width="161" height="57" rx="8.5" stroke="#CBCFDA"/>
</g>
<path d="M228 117C227.448 117 227 117.448 227 118C227 118.552 227.448 119 228 119V117ZM284.707 118.707C285.098 118.317 285.098 117.683 284.707 117.293L278.343 110.929C277.953 110.538 277.319 110.538 276.929 110.929C276.538 111.319 276.538 111.953 276.929 112.343L282.586 118L276.929 123.657C276.538 124.047 276.538 124.681 276.929 125.071C277.319 125.462 277.953 125.462 278.343 125.071L284.707 118.707ZM228 119H284V117H228V119Z" fill="#3264C1"/>
<path d="M228 177C227.448 177 227 177.448 227 178C227 178.552 227.448 179 228 179V177ZM284.707 118.707C285.098 118.317 285.098 117.683 284.707 117.293L278.343 110.929C277.953 110.538 277.319 110.538 276.929 110.929C276.538 111.319 276.538 111.953 276.929 112.343L282.586 118L276.929 123.657C276.538 124.047 276.538 124.681 276.929 125.071C277.319 125.462 277.953 125.462 278.343 125.071L284.707 118.707ZM228 179H232V177H228V179ZM257 154V142H255V154H257ZM280 119H284V117H280V119ZM257 142C257 129.297 267.297 119 280 119V117C266.193 117 255 128.193 255 142H257ZM232 179C245.807 179 257 167.807 257 154H255C255 166.703 244.703 177 232 177V179Z" fill="#3264C1"/>
<path d="M228 57C227.448 57 227 57.4477 227 58C227 58.5523 227.448 59 228 59V57ZM284.707 118.707C285.098 118.317 285.098 117.683 284.707 117.293L278.343 110.929C277.953 110.538 277.319 110.538 276.929 110.929C276.538 111.319 276.538 111.953 276.929 112.343L282.586 118L276.929 123.657C276.538 124.047 276.538 124.681 276.929 125.071C277.319 125.462 277.953 125.462 278.343 125.071L284.707 118.707ZM228 59H232V57H228V59ZM255 82V94H257V82H255ZM280 119H284V117H280V119ZM255 94C255 107.807 266.193 119 280 119V117C267.297 117 257 106.703 257 94H255ZM232 59C244.703 59 255 69.2975 255 82H257C257 68.1929 245.807 57 232 57V59Z" fill="#3264C1"/>
<g filter="url(#filter4_d_23_719)">
<rect x="288" y="226" width="160" height="36" rx="8" fill="white"/>
<path d="M322.664 249H327.094C329.199 249 330.505 247.913 330.505 246.184V246.17C330.505 244.905 329.555 243.928 328.249 243.825V243.702C329.261 243.552 330.033 242.643 330.033 241.604V241.59C330.033 240.072 328.892 239.136 326.978 239.136H322.664V249ZM326.451 240.667C327.436 240.667 328.003 241.146 328.003 241.945V241.959C328.003 242.772 327.395 243.237 326.28 243.237H324.729V240.667H326.451ZM326.52 244.598C327.736 244.598 328.399 245.09 328.399 246.006V246.02C328.399 246.956 327.757 247.462 326.567 247.462H324.729V244.598H326.52ZM332.241 249H334.237V238.596H332.241V249ZM339.645 249.157C341.962 249.157 343.356 247.694 343.356 245.24V245.227C343.356 242.793 341.941 241.31 339.645 241.31C337.348 241.31 335.933 242.8 335.933 245.227V245.24C335.933 247.688 337.327 249.157 339.645 249.157ZM339.645 247.592C338.578 247.592 337.977 246.724 337.977 245.24V245.227C337.977 243.757 338.585 242.875 339.645 242.875C340.697 242.875 341.312 243.757 341.312 245.227V245.24C341.312 246.724 340.704 247.592 339.645 247.592ZM348.299 249.157C350.261 249.157 351.437 248.104 351.642 246.464L351.648 246.423H349.803L349.789 246.45C349.611 247.202 349.126 247.592 348.306 247.592C347.239 247.592 346.645 246.751 346.645 245.227V245.213C346.645 243.709 347.232 242.875 348.306 242.875C349.16 242.875 349.659 243.354 349.789 244.085L349.796 244.099H351.655V244.078C351.478 242.396 350.295 241.31 348.299 241.31C345.94 241.31 344.614 242.738 344.614 245.213V245.227C344.614 247.729 345.947 249.157 348.299 249.157ZM353.282 249H355.278V246.478L355.825 245.896L358.02 249H360.378L357.288 244.666L360.18 241.474H357.917L355.401 244.447H355.278V238.596H353.282V249ZM365.443 249H369.873C371.979 249 373.284 247.913 373.284 246.184V246.17C373.284 244.905 372.334 243.928 371.028 243.825V243.702C372.04 243.552 372.812 242.643 372.812 241.604V241.59C372.812 240.072 371.671 239.136 369.757 239.136H365.443V249ZM369.23 240.667C370.215 240.667 370.782 241.146 370.782 241.945V241.959C370.782 242.772 370.174 243.237 369.06 243.237H367.508V240.667H369.23ZM369.299 244.598C370.516 244.598 371.179 245.09 371.179 246.006V246.02C371.179 246.956 370.536 247.462 369.347 247.462H367.508V244.598H369.299ZM377.44 249.157C378.514 249.157 379.279 248.658 379.621 247.838H379.744V249H381.74V241.474H379.744V245.821C379.744 246.84 379.211 247.503 378.227 247.503C377.283 247.503 376.88 246.949 376.88 245.883V241.474H374.884V246.341C374.884 248.132 375.752 249.157 377.44 249.157ZM384.762 240.318C385.377 240.318 385.883 239.826 385.883 239.211C385.883 238.589 385.377 238.097 384.762 238.097C384.146 238.097 383.634 238.589 383.634 239.211C383.634 239.826 384.146 240.318 384.762 240.318ZM383.757 249H385.753V241.474H383.757V249ZM387.831 249H389.827V238.596H387.831V249ZM394.578 249.116C395.638 249.116 396.438 248.645 396.827 247.831H396.95V249H398.946V238.596H396.95V242.677H396.827C396.451 241.856 395.61 241.351 394.578 241.351C392.671 241.351 391.522 242.807 391.522 245.227V245.24C391.522 247.646 392.698 249.116 394.578 249.116ZM395.255 247.462C394.202 247.462 393.553 246.628 393.553 245.24V245.227C393.553 243.853 394.202 243.005 395.255 243.005C396.308 243.005 396.971 243.853 396.971 245.233V245.247C396.971 246.628 396.314 247.462 395.255 247.462ZM404.319 249.157C406.521 249.157 407.491 247.886 407.724 246.942L407.737 246.874H405.878L405.857 246.915C405.721 247.202 405.235 247.667 404.36 247.667C403.301 247.667 402.638 246.949 402.617 245.712H407.799V245.09C407.799 242.813 406.432 241.31 404.237 241.31C402.043 241.31 400.642 242.848 400.642 245.24V245.247C400.642 247.66 402.029 249.157 404.319 249.157ZM404.271 242.807C405.14 242.807 405.762 243.367 405.885 244.461H402.638C402.761 243.395 403.403 242.807 404.271 242.807ZM409.433 249H411.429V244.789C411.429 243.723 412.146 243.073 413.281 243.073C413.589 243.073 413.896 243.121 414.197 243.189V241.446C413.999 241.392 413.719 241.351 413.452 241.351C412.475 241.351 411.791 241.829 411.552 242.643H411.429V241.474H409.433V249Z" fill="black"/>
<rect x="287.5" y="225.5" width="161" height="37" rx="8.5" stroke="#CBCFDA"/>
</g>
<g filter="url(#filter5_d_23_719)">
<rect x="512" y="226" width="160" height="36" rx="8" fill="white"/>
<path d="M537.162 249H539.227V245.89H541.229C543.308 245.89 544.695 244.55 544.695 242.52V242.506C544.695 240.476 543.308 239.136 541.229 239.136H537.162V249ZM540.724 240.77C541.906 240.77 542.604 241.392 542.604 242.513V242.526C542.604 243.647 541.906 244.276 540.724 244.276H539.227V240.77H540.724ZM548.886 249.157C549.959 249.157 550.725 248.658 551.066 247.838H551.189V249H553.186V241.474H551.189V245.821C551.189 246.84 550.656 247.503 549.672 247.503C548.729 247.503 548.325 246.949 548.325 245.883V241.474H546.329V246.341C546.329 248.132 547.197 249.157 548.886 249.157ZM559.632 249.116C561.512 249.116 562.688 247.646 562.688 245.24V245.227C562.688 242.807 561.539 241.351 559.632 241.351C558.6 241.351 557.759 241.856 557.376 242.677H557.253V238.596H555.257V249H557.253V247.831H557.376C557.766 248.645 558.565 249.116 559.632 249.116ZM558.948 247.462C557.896 247.462 557.232 246.628 557.232 245.247V245.233C557.232 243.853 557.902 243.005 558.948 243.005C560.001 243.005 560.657 243.853 560.657 245.227V245.24C560.657 246.628 560.008 247.462 558.948 247.462ZM564.376 249H566.372V238.596H564.376V249ZM569.455 240.318C570.07 240.318 570.576 239.826 570.576 239.211C570.576 238.589 570.07 238.097 569.455 238.097C568.84 238.097 568.327 238.589 568.327 239.211C568.327 239.826 568.84 240.318 569.455 240.318ZM568.45 249H570.446V241.474H568.45V249ZM575.771 249.157C577.733 249.157 578.909 248.104 579.114 246.464L579.121 246.423H577.275L577.262 246.45C577.084 247.202 576.599 247.592 575.778 247.592C574.712 247.592 574.117 246.751 574.117 245.227V245.213C574.117 243.709 574.705 242.875 575.778 242.875C576.633 242.875 577.132 243.354 577.262 244.085L577.269 244.099H579.128V244.078C578.95 242.396 577.768 241.31 575.771 241.31C573.413 241.31 572.087 242.738 572.087 245.213V245.227C572.087 247.729 573.42 249.157 575.771 249.157ZM584.494 249H586.333V242.287H586.47L588.999 249H590.291L592.82 242.287H592.957V249H594.796V239.136H592.431L589.71 246.354H589.587L586.859 239.136H584.494V249ZM600.306 249.157C602.507 249.157 603.478 247.886 603.71 246.942L603.724 246.874H601.864L601.844 246.915C601.707 247.202 601.222 247.667 600.347 247.667C599.287 247.667 598.624 246.949 598.604 245.712H603.785V245.09C603.785 242.813 602.418 241.31 600.224 241.31C598.029 241.31 596.628 242.848 596.628 245.24V245.247C596.628 247.66 598.016 249.157 600.306 249.157ZM600.258 242.807C601.126 242.807 601.748 243.367 601.871 244.461H598.624C598.747 243.395 599.39 242.807 600.258 242.807ZM605.419 249H607.415V244.461C607.415 243.6 607.962 242.964 608.741 242.964C609.521 242.964 609.979 243.436 609.979 244.242V249H611.975V244.372C611.975 243.559 612.494 242.964 613.301 242.964C614.135 242.964 614.545 243.422 614.545 244.331V249H616.541V243.832C616.541 242.28 615.604 241.31 614.107 241.31C613.055 241.31 612.18 241.863 611.838 242.697H611.715C611.407 241.829 610.648 241.31 609.623 241.31C608.639 241.31 607.859 241.802 607.538 242.649H607.415V241.474H605.419V249ZM618.476 251.495H620.472V247.797H620.595C620.978 248.617 621.818 249.116 622.851 249.116C624.758 249.116 625.906 247.66 625.906 245.24V245.227C625.906 242.827 624.73 241.351 622.851 241.351C621.784 241.351 620.984 241.829 620.595 242.636H620.472V241.474H618.476V251.495ZM622.167 247.462C621.121 247.462 620.451 246.621 620.451 245.24V245.227C620.451 243.846 621.114 243.005 622.167 243.005C623.227 243.005 623.876 243.846 623.876 245.227V245.24C623.876 246.621 623.22 247.462 622.167 247.462ZM630.883 249.157C633.2 249.157 634.595 247.694 634.595 245.24V245.227C634.595 242.793 633.18 241.31 630.883 241.31C628.586 241.31 627.171 242.8 627.171 245.227V245.24C627.171 247.688 628.565 249.157 630.883 249.157ZM630.883 247.592C629.816 247.592 629.215 246.724 629.215 245.24V245.227C629.215 243.757 629.823 242.875 630.883 242.875C631.936 242.875 632.551 243.757 632.551 245.227V245.24C632.551 246.724 631.942 247.592 630.883 247.592ZM639.564 249.157C641.882 249.157 643.276 247.694 643.276 245.24V245.227C643.276 242.793 641.861 241.31 639.564 241.31C637.268 241.31 635.853 242.8 635.853 245.227V245.24C635.853 247.688 637.247 249.157 639.564 249.157ZM639.564 247.592C638.498 247.592 637.896 246.724 637.896 245.24V245.227C637.896 243.757 638.505 242.875 639.564 242.875C640.617 242.875 641.232 243.757 641.232 245.227V245.24C641.232 246.724 640.624 247.592 639.564 247.592ZM644.972 249H646.968V238.596H644.972V249Z" fill="black"/>
<rect x="511.5" y="225.5" width="161" height="37" rx="8.5" stroke="#CBCFDA"/>
</g>
<g filter="url(#filter6_d_23_719)">
<rect x="512" y="100" width="160" height="36" rx="8" fill="white"/>
<path d="M537.224 123H539.391L540.122 120.607H543.602L544.333 123H546.507L543.075 113.136H540.648L537.224 123ZM541.804 115.104H541.927L543.13 119.062H540.594L541.804 115.104ZM550.062 123.157C551.135 123.157 551.9 122.658 552.242 121.838H552.365V123H554.361V115.474H552.365V119.821C552.365 120.84 551.832 121.503 550.848 121.503C549.904 121.503 549.501 120.949 549.501 119.883V115.474H547.505V120.341C547.505 122.132 548.373 123.157 550.062 123.157ZM559.68 123.157C561.642 123.157 562.817 122.104 563.022 120.464L563.029 120.423H561.184L561.17 120.45C560.992 121.202 560.507 121.592 559.687 121.592C558.62 121.592 558.025 120.751 558.025 119.227V119.213C558.025 117.709 558.613 116.875 559.687 116.875C560.541 116.875 561.04 117.354 561.17 118.085L561.177 118.099H563.036V118.078C562.858 116.396 561.676 115.31 559.68 115.31C557.321 115.31 555.995 116.738 555.995 119.213V119.227C555.995 121.729 557.328 123.157 559.68 123.157ZM567.787 123.027C568.17 123.027 568.539 122.986 568.785 122.938V121.455C568.594 121.476 568.457 121.489 568.197 121.489C567.521 121.489 567.233 121.188 567.233 120.512V116.978H568.785V115.474H567.233V113.676H565.217V115.474H564.055V116.978H565.217V120.97C565.217 122.433 565.955 123.027 567.787 123.027ZM571.465 114.318C572.08 114.318 572.586 113.826 572.586 113.211C572.586 112.589 572.08 112.097 571.465 112.097C570.85 112.097 570.337 112.589 570.337 113.211C570.337 113.826 570.85 114.318 571.465 114.318ZM570.46 123H572.456V115.474H570.46V123ZM577.809 123.157C580.126 123.157 581.521 121.694 581.521 119.24V119.227C581.521 116.793 580.105 115.31 577.809 115.31C575.512 115.31 574.097 116.8 574.097 119.227V119.24C574.097 121.688 575.491 123.157 577.809 123.157ZM577.809 121.592C576.742 121.592 576.141 120.724 576.141 119.24V119.227C576.141 117.757 576.749 116.875 577.809 116.875C578.861 116.875 579.477 117.757 579.477 119.227V119.24C579.477 120.724 578.868 121.592 577.809 121.592ZM583.147 123H585.144V118.646C585.144 117.627 585.704 116.964 586.627 116.964C587.57 116.964 588.008 117.524 588.008 118.584V123H590.004V118.133C590.004 116.335 589.102 115.31 587.427 115.31C586.354 115.31 585.608 115.822 585.267 116.636H585.144V115.474H583.147V123ZM599.273 123.253C601.734 123.253 603.252 122.016 603.252 120.061V120.054C603.252 118.516 602.343 117.682 600.258 117.251L599.212 117.039C598.05 116.8 597.571 116.417 597.571 115.774V115.768C597.571 115.029 598.248 114.564 599.267 114.558C600.306 114.558 600.989 115.05 601.105 115.754L601.119 115.836H603.061L603.054 115.747C602.924 114.1 601.57 112.883 599.267 112.883C597.079 112.883 595.507 114.093 595.507 115.925V115.932C595.507 117.429 596.389 118.386 598.439 118.803L599.479 119.015C600.702 119.268 601.188 119.63 601.188 120.279V120.286C601.188 121.045 600.429 121.571 599.328 121.571C598.173 121.571 597.373 121.072 597.298 120.334L597.291 120.266H595.302L595.309 120.375C595.425 122.125 596.915 123.253 599.273 123.253ZM605.904 125.652C607.764 125.652 608.755 124.982 609.425 122.993L611.988 115.474H609.883L608.304 121.175H608.167L606.588 115.474H604.394L607.039 123L606.971 123.287C606.827 123.875 606.417 124.148 605.706 124.148C605.521 124.148 605.323 124.142 605.187 124.128V125.632C605.419 125.646 605.672 125.652 605.904 125.652ZM616.165 123.157C618.093 123.157 619.467 122.187 619.467 120.696V120.689C619.467 119.575 618.763 118.946 617.259 118.625L616.008 118.358C615.229 118.188 614.948 117.955 614.948 117.552V117.545C614.948 117.039 615.44 116.718 616.131 116.718C616.876 116.718 617.32 117.094 617.43 117.497L617.437 117.531H619.289V117.504C619.207 116.294 618.113 115.31 616.138 115.31C614.258 115.31 613 116.253 613 117.668V117.675C613 118.803 613.711 119.507 615.146 119.814L616.404 120.081C617.17 120.252 617.471 120.505 617.471 120.908V120.922C617.471 121.421 616.951 121.749 616.186 121.749C615.399 121.749 614.941 121.414 614.784 120.949L614.771 120.922H612.809L612.815 120.949C612.959 122.241 614.121 123.157 616.165 123.157ZM624.184 123.027C624.566 123.027 624.936 122.986 625.182 122.938V121.455C624.99 121.476 624.854 121.489 624.594 121.489C623.917 121.489 623.63 121.188 623.63 120.512V116.978H625.182V115.474H623.63V113.676H621.613V115.474H620.451V116.978H621.613V120.97C621.613 122.433 622.352 123.027 624.184 123.027ZM630.097 123.157C632.298 123.157 633.269 121.886 633.501 120.942L633.515 120.874H631.655L631.635 120.915C631.498 121.202 631.013 121.667 630.138 121.667C629.078 121.667 628.415 120.949 628.395 119.712H633.576V119.09C633.576 116.813 632.209 115.31 630.015 115.31C627.82 115.31 626.419 116.848 626.419 119.24V119.247C626.419 121.66 627.807 123.157 630.097 123.157ZM630.049 116.807C630.917 116.807 631.539 117.367 631.662 118.461H628.415C628.538 117.395 629.181 116.807 630.049 116.807ZM635.21 123H637.206V118.461C637.206 117.6 637.753 116.964 638.532 116.964C639.312 116.964 639.77 117.436 639.77 118.242V123H641.766V118.372C641.766 117.559 642.285 116.964 643.092 116.964C643.926 116.964 644.336 117.422 644.336 118.331V123H646.332V117.832C646.332 116.28 645.396 115.31 643.898 115.31C642.846 115.31 641.971 115.863 641.629 116.697H641.506C641.198 115.829 640.439 115.31 639.414 115.31C638.43 115.31 637.65 115.802 637.329 116.649H637.206V115.474H635.21V123Z" fill="black"/>
<rect x="511.5" y="99.5" width="161" height="37" rx="8.5" stroke="#CBCFDA"/>
</g>
<path d="M593 140C593 139.448 592.552 139 592 139C591.448 139 591 139.448 591 140H593ZM451.293 117.293C450.902 117.683 450.902 118.317 451.293 118.707L457.657 125.071C458.047 125.462 458.681 125.462 459.071 125.071C459.462 124.681 459.462 124.047 459.071 123.657L453.414 118L459.071 112.343C459.462 111.953 459.462 111.319 459.071 110.929C458.681 110.538 458.047 110.538 457.657 110.929L451.293 117.293ZM591 140V144H593V140H591ZM568 167H504V169H568V167ZM481 144V142H479V144H481ZM456 117H452V119H456V117ZM481 142C481 128.193 469.807 117 456 117V119C468.703 119 479 129.297 479 142H481ZM504 167C491.297 167 481 156.703 481 144H479C479 157.807 490.193 169 504 169V167ZM591 144C591 156.703 580.703 167 568 167V169C581.807 169 593 157.807 593 144H591Z" fill="#EBB461"/>
<path d="M367 86C367 86.5523 367.448 87 368 87C368.552 87 369 86.5523 369 86H367ZM508.707 118.707C509.098 118.317 509.098 117.683 508.707 117.293L502.343 110.929C501.953 110.538 501.319 110.538 500.929 110.929C500.538 111.319 500.538 111.953 500.929 112.343L506.586 118L500.929 123.657C500.538 124.047 500.538 124.681 500.929 125.071C501.319 125.462 501.953 125.462 502.343 125.071L508.707 118.707ZM369 86V82H367V86H369ZM392 59H456V57H392V59ZM479 82V94H481V82H479ZM504 119H508V117H504V119ZM479 94C479 107.807 490.193 119 504 119V117C491.297 117 481 106.703 481 94H479ZM456 59C468.703 59 479 69.2975 479 82H481C481 68.1929 469.807 57 456 57V59ZM369 82C369 69.2975 379.297 59 392 59V57C378.193 57 367 68.1929 367 82H369Z" fill="#61A9EB"/>
<g filter="url(#filter7_d_23_719)">
<rect x="736" y="100" width="160" height="36" rx="8" fill="white"/>
<path d="M763.924 123H765.763V116.287H765.899L768.429 123H769.721L772.25 116.287H772.387V123H774.226V113.136H771.86L769.14 120.354H769.017L766.289 113.136H763.924V123ZM776.625 123H783.16V121.298H778.689V118.803H782.907V117.217H778.689V114.838H783.16V113.136H776.625V123ZM787.918 123H790.461L793.749 113.136H791.425L789.251 120.703H789.128L786.947 113.136H784.63L787.918 123ZM802.574 123.253C805.035 123.253 806.553 122.016 806.553 120.061V120.054C806.553 118.516 805.644 117.682 803.559 117.251L802.513 117.039C801.351 116.8 800.872 116.417 800.872 115.774V115.768C800.872 115.029 801.549 114.564 802.567 114.558C803.606 114.558 804.29 115.05 804.406 115.754L804.42 115.836H806.361L806.354 115.747C806.225 114.1 804.871 112.883 802.567 112.883C800.38 112.883 798.808 114.093 798.808 115.925V115.932C798.808 117.429 799.689 118.386 801.74 118.803L802.779 119.015C804.003 119.268 804.488 119.63 804.488 120.279V120.286C804.488 121.045 803.729 121.571 802.629 121.571C801.474 121.571 800.674 121.072 800.599 120.334L800.592 120.266H798.603L798.609 120.375C798.726 122.125 800.216 123.253 802.574 123.253ZM811.618 123.157C813.819 123.157 814.79 121.886 815.022 120.942L815.036 120.874H813.177L813.156 120.915C813.02 121.202 812.534 121.667 811.659 121.667C810.6 121.667 809.937 120.949 809.916 119.712H815.098V119.09C815.098 116.813 813.73 115.31 811.536 115.31C809.342 115.31 807.94 116.848 807.94 119.24V119.247C807.94 121.66 809.328 123.157 811.618 123.157ZM811.57 116.807C812.438 116.807 813.061 117.367 813.184 118.461H809.937C810.06 117.395 810.702 116.807 811.57 116.807ZM818.782 123.116C819.767 123.116 820.56 122.699 820.942 122.002H821.065V123H823.034V117.859C823.034 116.253 821.906 115.31 819.91 115.31C818.017 115.31 816.772 116.185 816.615 117.504L816.608 117.565H818.454L818.468 117.538C818.625 117.094 819.083 116.841 819.801 116.841C820.621 116.841 821.065 117.21 821.065 117.859V118.481L819.247 118.591C817.374 118.7 816.328 119.493 816.328 120.847V120.86C816.328 122.228 817.347 123.116 818.782 123.116ZM818.276 120.737V120.724C818.276 120.177 818.693 119.855 819.548 119.801L821.065 119.705V120.259C821.065 121.052 820.375 121.66 819.452 121.66C818.762 121.66 818.276 121.312 818.276 120.737ZM824.989 123H826.985V118.789C826.985 117.723 827.703 117.073 828.838 117.073C829.146 117.073 829.453 117.121 829.754 117.189V115.446C829.556 115.392 829.275 115.351 829.009 115.351C828.031 115.351 827.348 115.829 827.108 116.643H826.985V115.474H824.989V123ZM834.225 123.157C836.187 123.157 837.362 122.104 837.567 120.464L837.574 120.423H835.729L835.715 120.45C835.537 121.202 835.052 121.592 834.231 121.592C833.165 121.592 832.57 120.751 832.57 119.227V119.213C832.57 117.709 833.158 116.875 834.231 116.875C835.086 116.875 835.585 117.354 835.715 118.085L835.722 118.099H837.581V118.078C837.403 116.396 836.221 115.31 834.225 115.31C831.866 115.31 830.54 116.738 830.54 119.213V119.227C830.54 121.729 831.873 123.157 834.225 123.157ZM839.208 123H841.204V118.646C841.204 117.627 841.765 116.964 842.688 116.964C843.631 116.964 844.068 117.524 844.068 118.584V123H846.064V118.133C846.064 116.335 845.162 115.31 843.487 115.31C842.414 115.31 841.669 115.822 841.327 116.636H841.204V112.596H839.208V123ZM851.308 123.157C853.509 123.157 854.479 121.886 854.712 120.942L854.726 120.874H852.866L852.846 120.915C852.709 121.202 852.224 121.667 851.349 121.667C850.289 121.667 849.626 120.949 849.605 119.712H854.787V119.09C854.787 116.813 853.42 115.31 851.226 115.31C849.031 115.31 847.63 116.848 847.63 119.24V119.247C847.63 121.66 849.018 123.157 851.308 123.157ZM851.26 116.807C852.128 116.807 852.75 117.367 852.873 118.461H849.626C849.749 117.395 850.392 116.807 851.26 116.807ZM856.421 123H858.417V118.789C858.417 117.723 859.135 117.073 860.27 117.073C860.577 117.073 860.885 117.121 861.186 117.189V115.446C860.987 115.392 860.707 115.351 860.44 115.351C859.463 115.351 858.779 115.829 858.54 116.643H858.417V115.474H856.421V123ZM865.335 123.157C867.263 123.157 868.637 122.187 868.637 120.696V120.689C868.637 119.575 867.933 118.946 866.429 118.625L865.178 118.358C864.398 118.188 864.118 117.955 864.118 117.552V117.545C864.118 117.039 864.61 116.718 865.301 116.718C866.046 116.718 866.49 117.094 866.6 117.497L866.606 117.531H868.459V117.504C868.377 116.294 867.283 115.31 865.308 115.31C863.428 115.31 862.17 116.253 862.17 117.668V117.675C862.17 118.803 862.881 119.507 864.316 119.814L865.574 120.081C866.34 120.252 866.641 120.505 866.641 120.908V120.922C866.641 121.421 866.121 121.749 865.355 121.749C864.569 121.749 864.111 121.414 863.954 120.949L863.94 120.922H861.979L861.985 120.949C862.129 122.241 863.291 123.157 865.335 123.157Z" fill="black"/>
<rect x="735.5" y="99.5" width="161" height="37" rx="8.5" stroke="#CBCFDA"/>
</g>
<path d="M591 96C591 96.5523 591.448 97 592 97C592.552 97 593 96.5523 593 96H591ZM732.707 118.707C733.098 118.317 733.098 117.683 732.707 117.293L726.343 110.929C725.953 110.538 725.319 110.538 724.929 110.929C724.538 111.319 724.538 111.953 724.929 112.343L730.586 118L724.929 123.657C724.538 124.047 724.538 124.681 724.929 125.071C725.319 125.462 725.953 125.462 726.343 125.071L732.707 118.707ZM593 96V92H591V96H593ZM616 69H680V67H616V69ZM703 92V94H705V92H703ZM728 119H732V117H728V119ZM703 94C703 107.807 714.193 119 728 119V117C715.297 117 705 106.703 705 94H703ZM680 69C692.703 69 703 79.2975 703 92H705C705 78.1929 693.807 67 680 67V69ZM593 92C593 79.2975 603.297 69 616 69V67C602.193 67 591 78.1929 591 92H593Z" fill="#61A9EB"/>
<path d="M369 150C369 149.448 368.552 149 368 149C367.448 149 367 149.448 367 150H369ZM591.293 222.707C591.683 223.098 592.317 223.098 592.707 222.707L599.071 216.343C599.462 215.953 599.462 215.319 599.071 214.929C598.681 214.538 598.047 214.538 597.657 214.929L592 220.586L586.343 214.929C585.953 214.538 585.319 214.538 584.929 214.929C584.538 215.319 584.538 215.953 584.929 216.343L591.293 222.707ZM367 150V162H369V150H367ZM392 187H568V185H392V187ZM591 210V222H593V210H591ZM568 187C580.703 187 591 197.297 591 210H593C593 196.193 581.807 185 568 185V187ZM367 162C367 175.807 378.193 187 392 187V185C379.297 185 369 174.703 369 162H367Z" fill="#3264C1"/>
<path d="M817 140C817 139.448 816.552 139 816 139C815.448 139 815 139.448 815 140H817ZM675.293 117.293C674.902 117.683 674.902 118.317 675.293 118.707L681.657 125.071C682.047 125.462 682.681 125.462 683.071 125.071C683.462 124.681 683.462 124.047 683.071 123.657L677.414 118L683.071 112.343C683.462 111.953 683.462 111.319 683.071 110.929C682.681 110.538 682.047 110.538 681.657 110.929L675.293 117.293ZM815 140V144H817V140H815ZM792 167H728V169H792V167ZM705 144V142H703V144H705ZM680 117H676V119H680V117ZM705 142C705 128.193 693.807 117 680 117V119C692.703 119 703 129.297 703 142H705ZM728 167C715.297 167 705 156.703 705 144H703C703 157.807 714.193 169 728 169V167ZM815 144C815 156.703 804.703 167 792 167V169C805.807 169 817 157.807 817 144H815Z" fill="#EBB461"/>
<path d="M65 312H83" stroke="#61A9EB" stroke-width="2" stroke-linecap="round"/>
<path d="M105.168 317.232C107.615 317.232 109.078 315.756 109.078 313.609V307.136H107.848V313.527C107.848 315.045 106.877 316.098 105.168 316.098C103.459 316.098 102.475 315.045 102.475 313.527V307.136H101.244V313.609C101.244 315.756 102.721 317.232 105.168 317.232ZM111.43 317H112.619V312.639C112.619 311.347 113.364 310.554 114.54 310.554C115.716 310.554 116.263 311.189 116.263 312.516V317H117.452V312.229C117.452 310.479 116.529 309.501 114.875 309.501C113.788 309.501 113.098 309.959 112.729 310.738H112.619V309.631H111.43V317ZM122.135 317.13C123.81 317.13 125.088 316.221 125.088 314.908V314.895C125.088 313.842 124.418 313.24 123.03 312.905L121.896 312.632C121.027 312.42 120.658 312.105 120.658 311.606V311.593C120.658 310.943 121.301 310.492 122.176 310.492C123.064 310.492 123.639 310.896 123.796 311.477H124.965C124.801 310.273 123.728 309.501 122.183 309.501C120.617 309.501 119.441 310.424 119.441 311.647V311.654C119.441 312.714 120.063 313.315 121.444 313.644L122.586 313.917C123.495 314.136 123.871 314.484 123.871 314.983V314.997C123.871 315.667 123.167 316.139 122.176 316.139C121.232 316.139 120.645 315.735 120.446 315.12H119.229C119.366 316.337 120.494 317.13 122.135 317.13ZM127.562 308.209C128.014 308.209 128.383 307.84 128.383 307.389C128.383 306.938 128.014 306.568 127.562 306.568C127.111 306.568 126.742 306.938 126.742 307.389C126.742 307.84 127.111 308.209 127.562 308.209ZM126.961 317H128.15V309.631H126.961V317ZM133.428 319.598C135.438 319.598 136.709 318.545 136.709 316.897V309.631H135.52V310.848H135.438C134.986 310.014 134.18 309.501 133.141 309.501C131.213 309.501 130.023 310.998 130.023 313.062V313.076C130.023 315.141 131.206 316.617 133.113 316.617C134.125 316.617 134.959 316.159 135.424 315.346H135.533V316.836C135.533 317.923 134.747 318.545 133.428 318.545C132.368 318.545 131.712 318.148 131.582 317.588L131.575 317.581H130.345L130.331 317.588C130.516 318.798 131.65 319.598 133.428 319.598ZM133.373 315.564C132.006 315.564 131.24 314.539 131.24 313.076V313.062C131.24 311.6 132.006 310.554 133.373 310.554C134.733 310.554 135.561 311.6 135.561 313.062V313.076C135.561 314.539 134.74 315.564 133.373 315.564ZM138.924 317H140.113V312.639C140.113 311.347 140.858 310.554 142.034 310.554C143.21 310.554 143.757 311.189 143.757 312.516V317H144.946V312.229C144.946 310.479 144.023 309.501 142.369 309.501C141.282 309.501 140.592 309.959 140.223 310.738H140.113V309.631H138.924V317ZM150.107 317.13C151.844 317.13 152.896 316.146 153.149 315.147L153.163 315.093H151.974L151.946 315.154C151.748 315.599 151.133 316.07 150.135 316.07C148.822 316.07 147.981 315.182 147.947 313.657H153.252V313.192C153.252 310.991 152.035 309.501 150.032 309.501C148.029 309.501 146.73 311.06 146.73 313.336V313.343C146.73 315.653 148.002 317.13 150.107 317.13ZM150.025 310.561C151.112 310.561 151.919 311.251 152.042 312.707H147.968C148.098 311.306 148.932 310.561 150.025 310.561ZM157.818 317.13C158.844 317.13 159.664 316.645 160.115 315.824H160.225V317H161.414V306.705H160.225V310.793H160.115C159.712 310.007 158.83 309.501 157.818 309.501C155.945 309.501 154.729 310.998 154.729 313.309V313.322C154.729 315.619 155.952 317.13 157.818 317.13ZM158.092 316.077C156.745 316.077 155.945 315.038 155.945 313.322V313.309C155.945 311.593 156.745 310.554 158.092 310.554C159.432 310.554 160.252 311.606 160.252 313.309V313.322C160.252 315.024 159.432 316.077 158.092 316.077ZM170.253 317.055C170.485 317.055 170.711 317.027 170.943 316.986V315.975C170.725 315.995 170.608 316.002 170.396 316.002C169.631 316.002 169.33 315.653 169.33 314.785V310.615H170.943V309.631H169.33V307.724H168.1V309.631H166.938V310.615H168.1V315.086C168.1 316.494 168.735 317.055 170.253 317.055ZM172.721 317H173.91V312.434C173.91 311.354 174.717 310.636 175.852 310.636C176.111 310.636 176.337 310.663 176.583 310.704V309.549C176.467 309.528 176.214 309.501 175.988 309.501C174.99 309.501 174.3 309.952 174.02 310.725H173.91V309.631H172.721V317ZM180.076 317.13C181.067 317.13 181.84 316.699 182.305 315.913H182.414V317H183.604V311.955C183.604 310.424 182.599 309.501 180.801 309.501C179.229 309.501 178.107 310.28 177.916 311.436L177.909 311.477H179.099L179.105 311.456C179.297 310.882 179.878 310.554 180.76 310.554C181.86 310.554 182.414 311.046 182.414 311.955V312.625L180.302 312.755C178.586 312.857 177.615 313.616 177.615 314.929V314.942C177.615 316.282 178.675 317.13 180.076 317.13ZM178.832 314.915V314.901C178.832 314.17 179.324 313.773 180.445 313.705L182.414 313.582V314.252C182.414 315.305 181.532 316.098 180.322 316.098C179.468 316.098 178.832 315.66 178.832 314.915ZM185.777 317H186.967V312.639C186.967 311.347 187.712 310.554 188.888 310.554C190.063 310.554 190.61 311.189 190.61 312.516V317H191.8V312.229C191.8 310.479 190.877 309.501 189.223 309.501C188.136 309.501 187.445 309.959 187.076 310.738H186.967V309.631H185.777V317ZM196.482 317.13C198.157 317.13 199.436 316.221 199.436 314.908V314.895C199.436 313.842 198.766 313.24 197.378 312.905L196.243 312.632C195.375 312.42 195.006 312.105 195.006 311.606V311.593C195.006 310.943 195.648 310.492 196.523 310.492C197.412 310.492 197.986 310.896 198.144 311.477H199.312C199.148 310.273 198.075 309.501 196.53 309.501C194.965 309.501 193.789 310.424 193.789 311.647V311.654C193.789 312.714 194.411 313.315 195.792 313.644L196.934 313.917C197.843 314.136 198.219 314.484 198.219 314.983V314.997C198.219 315.667 197.515 316.139 196.523 316.139C195.58 316.139 194.992 315.735 194.794 315.12H193.577C193.714 316.337 194.842 317.13 196.482 317.13ZM203.305 317.13C204.296 317.13 205.068 316.699 205.533 315.913H205.643V317H206.832V311.955C206.832 310.424 205.827 309.501 204.029 309.501C202.457 309.501 201.336 310.28 201.145 311.436L201.138 311.477H202.327L202.334 311.456C202.525 310.882 203.106 310.554 203.988 310.554C205.089 310.554 205.643 311.046 205.643 311.955V312.625L203.53 312.755C201.814 312.857 200.844 313.616 200.844 314.929V314.942C200.844 316.282 201.903 317.13 203.305 317.13ZM202.061 314.915V314.901C202.061 314.17 202.553 313.773 203.674 313.705L205.643 313.582V314.252C205.643 315.305 204.761 316.098 203.551 316.098C202.696 316.098 202.061 315.66 202.061 314.915ZM212.021 317.13C213.791 317.13 214.782 316.18 215.083 314.847L215.097 314.771L213.921 314.778L213.907 314.819C213.634 315.64 213.005 316.077 212.014 316.077C210.701 316.077 209.854 314.99 209.854 313.295V313.281C209.854 311.62 210.688 310.554 212.014 310.554C213.073 310.554 213.729 311.142 213.914 311.866L213.921 311.887H215.104L215.097 311.846C214.878 310.533 213.805 309.501 212.014 309.501C209.949 309.501 208.637 310.991 208.637 313.281V313.295C208.637 315.633 209.956 317.13 212.021 317.13ZM219.595 317.055C219.827 317.055 220.053 317.027 220.285 316.986V315.975C220.066 315.995 219.95 316.002 219.738 316.002C218.973 316.002 218.672 315.653 218.672 314.785V310.615H220.285V309.631H218.672V307.724H217.441V309.631H216.279V310.615H217.441V315.086C217.441 316.494 218.077 317.055 219.595 317.055ZM222.691 308.209C223.143 308.209 223.512 307.84 223.512 307.389C223.512 306.938 223.143 306.568 222.691 306.568C222.24 306.568 221.871 306.938 221.871 307.389C221.871 307.84 222.24 308.209 222.691 308.209ZM222.09 317H223.279V309.631H222.09V317ZM228.55 317.13C230.648 317.13 231.947 315.681 231.947 313.322V313.309C231.947 310.943 230.648 309.501 228.55 309.501C226.451 309.501 225.152 310.943 225.152 313.309V313.322C225.152 315.681 226.451 317.13 228.55 317.13ZM228.55 316.077C227.155 316.077 226.369 315.059 226.369 313.322V313.309C226.369 311.565 227.155 310.554 228.55 310.554C229.944 310.554 230.73 311.565 230.73 313.309V313.322C230.73 315.059 229.944 316.077 228.55 316.077ZM233.793 317H234.982V312.639C234.982 311.347 235.728 310.554 236.903 310.554C238.079 310.554 238.626 311.189 238.626 312.516V317H239.815V312.229C239.815 310.479 238.893 309.501 237.238 309.501C236.151 309.501 235.461 309.959 235.092 310.738H234.982V309.631H233.793V317Z" fill="#888888"/>
<path d="M282 312H300" stroke="#3264C1" stroke-width="2" stroke-linecap="round"/>
<path d="M321.491 317.232C323.692 317.232 325.135 316.084 325.135 314.238V314.231C325.135 312.81 324.321 311.982 322.264 311.524L321.17 311.278C319.83 310.984 319.29 310.451 319.29 309.665V309.658C319.29 308.626 320.24 308.045 321.471 308.038C322.756 308.031 323.576 308.674 323.713 309.542L323.727 309.631H324.957L324.95 309.535C324.848 308.065 323.474 306.903 321.505 306.903C319.468 306.903 318.039 308.059 318.032 309.692V309.699C318.032 311.128 318.887 312.037 320.862 312.475L321.956 312.714C323.31 313.015 323.877 313.575 323.877 314.396V314.402C323.877 315.407 322.899 316.098 321.56 316.098C320.138 316.098 319.112 315.476 319.023 314.491L319.017 314.416H317.786L317.793 314.491C317.937 316.098 319.331 317.232 321.491 317.232ZM327.664 308.209C328.115 308.209 328.484 307.84 328.484 307.389C328.484 306.938 328.115 306.568 327.664 306.568C327.213 306.568 326.844 306.938 326.844 307.389C326.844 307.84 327.213 308.209 327.664 308.209ZM327.062 317H328.252V309.631H327.062V317ZM333.529 319.598C335.539 319.598 336.811 318.545 336.811 316.897V309.631H335.621V310.848H335.539C335.088 310.014 334.281 309.501 333.242 309.501C331.314 309.501 330.125 310.998 330.125 313.062V313.076C330.125 315.141 331.308 316.617 333.215 316.617C334.227 316.617 335.061 316.159 335.525 315.346H335.635V316.836C335.635 317.923 334.849 318.545 333.529 318.545C332.47 318.545 331.813 318.148 331.684 317.588L331.677 317.581H330.446L330.433 317.588C330.617 318.798 331.752 319.598 333.529 319.598ZM333.475 315.564C332.107 315.564 331.342 314.539 331.342 313.076V313.062C331.342 311.6 332.107 310.554 333.475 310.554C334.835 310.554 335.662 311.6 335.662 313.062V313.076C335.662 314.539 334.842 315.564 333.475 315.564ZM339.025 317H340.215V312.639C340.215 311.347 340.96 310.554 342.136 310.554C343.312 310.554 343.858 311.189 343.858 312.516V317H345.048V312.229C345.048 310.479 344.125 309.501 342.471 309.501C341.384 309.501 340.693 309.959 340.324 310.738H340.215V309.631H339.025V317ZM350.209 317.13C351.945 317.13 352.998 316.146 353.251 315.147L353.265 315.093H352.075L352.048 315.154C351.85 315.599 351.234 316.07 350.236 316.07C348.924 316.07 348.083 315.182 348.049 313.657H353.354V313.192C353.354 310.991 352.137 309.501 350.134 309.501C348.131 309.501 346.832 311.06 346.832 313.336V313.343C346.832 315.653 348.104 317.13 350.209 317.13ZM350.127 310.561C351.214 310.561 352.021 311.251 352.144 312.707H348.069C348.199 311.306 349.033 310.561 350.127 310.561ZM357.92 317.13C358.945 317.13 359.766 316.645 360.217 315.824H360.326V317H361.516V306.705H360.326V310.793H360.217C359.813 310.007 358.932 309.501 357.92 309.501C356.047 309.501 354.83 310.998 354.83 313.309V313.322C354.83 315.619 356.054 317.13 357.92 317.13ZM358.193 316.077C356.847 316.077 356.047 315.038 356.047 313.322V313.309C356.047 311.593 356.847 310.554 358.193 310.554C359.533 310.554 360.354 311.606 360.354 313.309V313.322C360.354 315.024 359.533 316.077 358.193 316.077ZM370.354 317.055C370.587 317.055 370.812 317.027 371.045 316.986V315.975C370.826 315.995 370.71 316.002 370.498 316.002C369.732 316.002 369.432 315.653 369.432 314.785V310.615H371.045V309.631H369.432V307.724H368.201V309.631H367.039V310.615H368.201V315.086C368.201 316.494 368.837 317.055 370.354 317.055ZM372.822 317H374.012V312.434C374.012 311.354 374.818 310.636 375.953 310.636C376.213 310.636 376.438 310.663 376.685 310.704V309.549C376.568 309.528 376.315 309.501 376.09 309.501C375.092 309.501 374.401 309.952 374.121 310.725H374.012V309.631H372.822V317ZM380.178 317.13C381.169 317.13 381.941 316.699 382.406 315.913H382.516V317H383.705V311.955C383.705 310.424 382.7 309.501 380.902 309.501C379.33 309.501 378.209 310.28 378.018 311.436L378.011 311.477H379.2L379.207 311.456C379.398 310.882 379.979 310.554 380.861 310.554C381.962 310.554 382.516 311.046 382.516 311.955V312.625L380.403 312.755C378.688 312.857 377.717 313.616 377.717 314.929V314.942C377.717 316.282 378.776 317.13 380.178 317.13ZM378.934 314.915V314.901C378.934 314.17 379.426 313.773 380.547 313.705L382.516 313.582V314.252C382.516 315.305 381.634 316.098 380.424 316.098C379.569 316.098 378.934 315.66 378.934 314.915ZM385.879 317H387.068V312.639C387.068 311.347 387.813 310.554 388.989 310.554C390.165 310.554 390.712 311.189 390.712 312.516V317H391.901V312.229C391.901 310.479 390.979 309.501 389.324 309.501C388.237 309.501 387.547 309.959 387.178 310.738H387.068V309.631H385.879V317ZM396.584 317.13C398.259 317.13 399.537 316.221 399.537 314.908V314.895C399.537 313.842 398.867 313.24 397.479 312.905L396.345 312.632C395.477 312.42 395.107 312.105 395.107 311.606V311.593C395.107 310.943 395.75 310.492 396.625 310.492C397.514 310.492 398.088 310.896 398.245 311.477H399.414C399.25 310.273 398.177 309.501 396.632 309.501C395.066 309.501 393.891 310.424 393.891 311.647V311.654C393.891 312.714 394.513 313.315 395.894 313.644L397.035 313.917C397.944 314.136 398.32 314.484 398.32 314.983V314.997C398.32 315.667 397.616 316.139 396.625 316.139C395.682 316.139 395.094 315.735 394.896 315.12H393.679C393.815 316.337 394.943 317.13 396.584 317.13ZM403.406 317.13C404.397 317.13 405.17 316.699 405.635 315.913H405.744V317H406.934V311.955C406.934 310.424 405.929 309.501 404.131 309.501C402.559 309.501 401.438 310.28 401.246 311.436L401.239 311.477H402.429L402.436 311.456C402.627 310.882 403.208 310.554 404.09 310.554C405.19 310.554 405.744 311.046 405.744 311.955V312.625L403.632 312.755C401.916 312.857 400.945 313.616 400.945 314.929V314.942C400.945 316.282 402.005 317.13 403.406 317.13ZM402.162 314.915V314.901C402.162 314.17 402.654 313.773 403.775 313.705L405.744 313.582V314.252C405.744 315.305 404.862 316.098 403.652 316.098C402.798 316.098 402.162 315.66 402.162 314.915ZM412.122 317.13C413.893 317.13 414.884 316.18 415.185 314.847L415.198 314.771L414.022 314.778L414.009 314.819C413.735 315.64 413.106 316.077 412.115 316.077C410.803 316.077 409.955 314.99 409.955 313.295V313.281C409.955 311.62 410.789 310.554 412.115 310.554C413.175 310.554 413.831 311.142 414.016 311.866L414.022 311.887H415.205L415.198 311.846C414.979 310.533 413.906 309.501 412.115 309.501C410.051 309.501 408.738 310.991 408.738 313.281V313.295C408.738 315.633 410.058 317.13 412.122 317.13ZM419.696 317.055C419.929 317.055 420.154 317.027 420.387 316.986V315.975C420.168 315.995 420.052 316.002 419.84 316.002C419.074 316.002 418.773 315.653 418.773 314.785V310.615H420.387V309.631H418.773V307.724H417.543V309.631H416.381V310.615H417.543V315.086C417.543 316.494 418.179 317.055 419.696 317.055ZM422.793 308.209C423.244 308.209 423.613 307.84 423.613 307.389C423.613 306.938 423.244 306.568 422.793 306.568C422.342 306.568 421.973 306.938 421.973 307.389C421.973 307.84 422.342 308.209 422.793 308.209ZM422.191 317H423.381V309.631H422.191V317ZM428.651 317.13C430.75 317.13 432.049 315.681 432.049 313.322V313.309C432.049 310.943 430.75 309.501 428.651 309.501C426.553 309.501 425.254 310.943 425.254 313.309V313.322C425.254 315.681 426.553 317.13 428.651 317.13ZM428.651 316.077C427.257 316.077 426.471 315.059 426.471 313.322V313.309C426.471 311.565 427.257 310.554 428.651 310.554C430.046 310.554 430.832 311.565 430.832 313.309V313.322C430.832 315.059 430.046 316.077 428.651 316.077ZM433.895 317H435.084V312.639C435.084 311.347 435.829 310.554 437.005 310.554C438.181 310.554 438.728 311.189 438.728 312.516V317H439.917V312.229C439.917 310.479 438.994 309.501 437.34 309.501C436.253 309.501 435.562 309.959 435.193 310.738H435.084V309.631H433.895V317Z" fill="#888888"/>
<path d="M482 312H500" stroke="#EBB461" stroke-width="2" stroke-linecap="round"/>
<path d="M518.258 317H522.106C524.205 317 525.449 315.968 525.449 314.238V314.225C525.449 312.926 524.595 312.003 523.248 311.832V311.723C524.198 311.552 524.95 310.622 524.95 309.604V309.59C524.95 308.086 523.843 307.136 522.031 307.136H518.258V317ZM521.771 308.223C522.995 308.223 523.706 308.804 523.706 309.802V309.815C523.706 310.854 522.947 311.388 521.457 311.388H519.488V308.223H521.771ZM521.806 312.447C523.378 312.447 524.185 313.028 524.185 314.163V314.177C524.185 315.312 523.405 315.913 521.922 315.913H519.488V312.447H521.806ZM527.938 308.209C528.389 308.209 528.758 307.84 528.758 307.389C528.758 306.938 528.389 306.568 527.938 306.568C527.486 306.568 527.117 306.938 527.117 307.389C527.117 307.84 527.486 308.209 527.938 308.209ZM527.336 317H528.525V309.631H527.336V317ZM533.488 317.13C534.514 317.13 535.334 316.645 535.785 315.824H535.895V317H537.084V306.705H535.895V310.793H535.785C535.382 310.007 534.5 309.501 533.488 309.501C531.615 309.501 530.398 310.998 530.398 313.309V313.322C530.398 315.619 531.622 317.13 533.488 317.13ZM533.762 316.077C532.415 316.077 531.615 315.038 531.615 313.322V313.309C531.615 311.593 532.415 310.554 533.762 310.554C535.102 310.554 535.922 311.606 535.922 313.309V313.322C535.922 315.024 535.102 316.077 533.762 316.077ZM542.99 313.582H546.053V316.713H547.16V313.582H550.223V312.475H547.16V309.344H546.053V312.475H542.99V313.582ZM558.679 317.055C558.911 317.055 559.137 317.027 559.369 316.986V315.975C559.15 315.995 559.034 316.002 558.822 316.002C558.057 316.002 557.756 315.653 557.756 314.785V310.615H559.369V309.631H557.756V307.724H556.525V309.631H555.363V310.615H556.525V315.086C556.525 316.494 557.161 317.055 558.679 317.055ZM561.146 317H562.336V312.434C562.336 311.354 563.143 310.636 564.277 310.636C564.537 310.636 564.763 310.663 565.009 310.704V309.549C564.893 309.528 564.64 309.501 564.414 309.501C563.416 309.501 562.726 309.952 562.445 310.725H562.336V309.631H561.146V317ZM568.502 317.13C569.493 317.13 570.266 316.699 570.73 315.913H570.84V317H572.029V311.955C572.029 310.424 571.024 309.501 569.227 309.501C567.654 309.501 566.533 310.28 566.342 311.436L566.335 311.477H567.524L567.531 311.456C567.723 310.882 568.304 310.554 569.186 310.554C570.286 310.554 570.84 311.046 570.84 311.955V312.625L568.728 312.755C567.012 312.857 566.041 313.616 566.041 314.929V314.942C566.041 316.282 567.101 317.13 568.502 317.13ZM567.258 314.915V314.901C567.258 314.17 567.75 313.773 568.871 313.705L570.84 313.582V314.252C570.84 315.305 569.958 316.098 568.748 316.098C567.894 316.098 567.258 315.66 567.258 314.915ZM574.203 317H575.393V312.639C575.393 311.347 576.138 310.554 577.313 310.554C578.489 310.554 579.036 311.189 579.036 312.516V317H580.226V312.229C580.226 310.479 579.303 309.501 577.648 309.501C576.562 309.501 575.871 309.959 575.502 310.738H575.393V309.631H574.203V317ZM584.908 317.13C586.583 317.13 587.861 316.221 587.861 314.908V314.895C587.861 313.842 587.191 313.24 585.804 312.905L584.669 312.632C583.801 312.42 583.432 312.105 583.432 311.606V311.593C583.432 310.943 584.074 310.492 584.949 310.492C585.838 310.492 586.412 310.896 586.569 311.477H587.738C587.574 310.273 586.501 309.501 584.956 309.501C583.391 309.501 582.215 310.424 582.215 311.647V311.654C582.215 312.714 582.837 313.315 584.218 313.644L585.359 313.917C586.269 314.136 586.645 314.484 586.645 314.983V314.997C586.645 315.667 585.94 316.139 584.949 316.139C584.006 316.139 583.418 315.735 583.22 315.12H582.003C582.14 316.337 583.268 317.13 584.908 317.13ZM591.73 317.13C592.722 317.13 593.494 316.699 593.959 315.913H594.068V317H595.258V311.955C595.258 310.424 594.253 309.501 592.455 309.501C590.883 309.501 589.762 310.28 589.57 311.436L589.563 311.477H590.753L590.76 311.456C590.951 310.882 591.532 310.554 592.414 310.554C593.515 310.554 594.068 311.046 594.068 311.955V312.625L591.956 312.755C590.24 312.857 589.27 313.616 589.27 314.929V314.942C589.27 316.282 590.329 317.13 591.73 317.13ZM590.486 314.915V314.901C590.486 314.17 590.979 313.773 592.1 313.705L594.068 313.582V314.252C594.068 315.305 593.187 316.098 591.977 316.098C591.122 316.098 590.486 315.66 590.486 314.915ZM600.446 317.13C602.217 317.13 603.208 316.18 603.509 314.847L603.522 314.771L602.347 314.778L602.333 314.819C602.06 315.64 601.431 316.077 600.439 316.077C599.127 316.077 598.279 314.99 598.279 313.295V313.281C598.279 311.62 599.113 310.554 600.439 310.554C601.499 310.554 602.155 311.142 602.34 311.866L602.347 311.887H603.529L603.522 311.846C603.304 310.533 602.23 309.501 600.439 309.501C598.375 309.501 597.062 310.991 597.062 313.281V313.295C597.062 315.633 598.382 317.13 600.446 317.13ZM608.021 317.055C608.253 317.055 608.479 317.027 608.711 316.986V315.975C608.492 315.995 608.376 316.002 608.164 316.002C607.398 316.002 607.098 315.653 607.098 314.785V310.615H608.711V309.631H607.098V307.724H605.867V309.631H604.705V310.615H605.867V315.086C605.867 316.494 606.503 317.055 608.021 317.055ZM611.117 308.209C611.568 308.209 611.938 307.84 611.938 307.389C611.938 306.938 611.568 306.568 611.117 306.568C610.666 306.568 610.297 306.938 610.297 307.389C610.297 307.84 610.666 308.209 611.117 308.209ZM610.516 317H611.705V309.631H610.516V317ZM616.976 317.13C619.074 317.13 620.373 315.681 620.373 313.322V313.309C620.373 310.943 619.074 309.501 616.976 309.501C614.877 309.501 613.578 310.943 613.578 313.309V313.322C613.578 315.681 614.877 317.13 616.976 317.13ZM616.976 316.077C615.581 316.077 614.795 315.059 614.795 313.322V313.309C614.795 311.565 615.581 310.554 616.976 310.554C618.37 310.554 619.156 311.565 619.156 313.309V313.322C619.156 315.059 618.37 316.077 616.976 316.077ZM622.219 317H623.408V312.639C623.408 311.347 624.153 310.554 625.329 310.554C626.505 310.554 627.052 311.189 627.052 312.516V317H628.241V312.229C628.241 310.479 627.318 309.501 625.664 309.501C624.577 309.501 623.887 309.959 623.518 310.738H623.408V309.631H622.219V317ZM637.996 317.13C639.862 317.13 641.086 315.619 641.086 313.322V313.309C641.086 310.998 639.869 309.501 637.996 309.501C636.984 309.501 636.103 310.007 635.699 310.793H635.59V306.705H634.4V317H635.59V315.824H635.699C636.15 316.645 636.971 317.13 637.996 317.13ZM637.723 316.077C636.383 316.077 635.562 315.024 635.562 313.322V313.309C635.562 311.606 636.383 310.554 637.723 310.554C639.069 310.554 639.869 311.593 639.869 313.309V313.322C639.869 315.038 639.069 316.077 637.723 316.077ZM645.399 317.13C646.479 317.13 647.225 316.686 647.587 315.899H647.696V317H648.886V309.631H647.696V313.992C647.696 315.284 647.006 316.077 645.707 316.077C644.531 316.077 644.053 315.441 644.053 314.115V309.631H642.863V314.402C642.863 316.146 643.725 317.13 645.399 317.13ZM651.107 317H652.297V312.639C652.297 311.347 653.042 310.554 654.218 310.554C655.394 310.554 655.94 311.189 655.94 312.516V317H657.13V312.229C657.13 310.479 656.207 309.501 654.553 309.501C653.466 309.501 652.775 309.959 652.406 310.738H652.297V309.631H651.107V317ZM662.004 317.13C663.029 317.13 663.85 316.645 664.301 315.824H664.41V317H665.6V306.705H664.41V310.793H664.301C663.897 310.007 663.016 309.501 662.004 309.501C660.131 309.501 658.914 310.998 658.914 313.309V313.322C658.914 315.619 660.138 317.13 662.004 317.13ZM662.277 316.077C660.931 316.077 660.131 315.038 660.131 313.322V313.309C660.131 311.593 660.931 310.554 662.277 310.554C663.617 310.554 664.438 311.606 664.438 313.309V313.322C664.438 315.024 663.617 316.077 662.277 316.077ZM667.951 317H669.141V306.705H667.951V317ZM674.432 317.13C676.168 317.13 677.221 316.146 677.474 315.147L677.487 315.093H676.298L676.271 315.154C676.072 315.599 675.457 316.07 674.459 316.07C673.146 316.07 672.306 315.182 672.271 313.657H677.576V313.192C677.576 310.991 676.359 309.501 674.356 309.501C672.354 309.501 671.055 311.06 671.055 313.336V313.343C671.055 315.653 672.326 317.13 674.432 317.13ZM674.35 310.561C675.437 310.561 676.243 311.251 676.366 312.707H672.292C672.422 311.306 673.256 310.561 674.35 310.561Z" fill="#888888"/>
<path d="M720 312H738" stroke="#EB6961" stroke-width="2" stroke-linecap="round"/>
<path d="M758.821 317H760.052V308.243H763.23V307.136H755.643V308.243H758.821V317ZM763.955 317H765.145V312.434C765.145 311.354 765.951 310.636 767.086 310.636C767.346 310.636 767.571 310.663 767.817 310.704V309.549C767.701 309.528 767.448 309.501 767.223 309.501C766.225 309.501 765.534 309.952 765.254 310.725H765.145V309.631H763.955V317ZM771.311 317.13C772.302 317.13 773.074 316.699 773.539 315.913H773.648V317H774.838V311.955C774.838 310.424 773.833 309.501 772.035 309.501C770.463 309.501 769.342 310.28 769.15 311.436L769.144 311.477H770.333L770.34 311.456C770.531 310.882 771.112 310.554 771.994 310.554C773.095 310.554 773.648 311.046 773.648 311.955V312.625L771.536 312.755C769.82 312.857 768.85 313.616 768.85 314.929V314.942C768.85 316.282 769.909 317.13 771.311 317.13ZM770.066 314.915V314.901C770.066 314.17 770.559 313.773 771.68 313.705L773.648 313.582V314.252C773.648 315.305 772.767 316.098 771.557 316.098C770.702 316.098 770.066 315.66 770.066 314.915ZM777.012 317H778.201V312.639C778.201 311.347 778.946 310.554 780.122 310.554C781.298 310.554 781.845 311.189 781.845 312.516V317H783.034V312.229C783.034 310.479 782.111 309.501 780.457 309.501C779.37 309.501 778.68 309.959 778.311 310.738H778.201V309.631H777.012V317ZM787.717 317.13C789.392 317.13 790.67 316.221 790.67 314.908V314.895C790.67 313.842 790 313.24 788.612 312.905L787.478 312.632C786.609 312.42 786.24 312.105 786.24 311.606V311.593C786.24 310.943 786.883 310.492 787.758 310.492C788.646 310.492 789.221 310.896 789.378 311.477H790.547C790.383 310.273 789.31 309.501 787.765 309.501C786.199 309.501 785.023 310.424 785.023 311.647V311.654C785.023 312.714 785.646 313.315 787.026 313.644L788.168 313.917C789.077 314.136 789.453 314.484 789.453 314.983V314.997C789.453 315.667 788.749 316.139 787.758 316.139C786.814 316.139 786.227 315.735 786.028 315.12H784.812C784.948 316.337 786.076 317.13 787.717 317.13ZM794.539 317.13C795.53 317.13 796.303 316.699 796.768 315.913H796.877V317H798.066V311.955C798.066 310.424 797.062 309.501 795.264 309.501C793.691 309.501 792.57 310.28 792.379 311.436L792.372 311.477H793.562L793.568 311.456C793.76 310.882 794.341 310.554 795.223 310.554C796.323 310.554 796.877 311.046 796.877 311.955V312.625L794.765 312.755C793.049 312.857 792.078 313.616 792.078 314.929V314.942C792.078 316.282 793.138 317.13 794.539 317.13ZM793.295 314.915V314.901C793.295 314.17 793.787 313.773 794.908 313.705L796.877 313.582V314.252C796.877 315.305 795.995 316.098 794.785 316.098C793.931 316.098 793.295 315.66 793.295 314.915ZM803.255 317.13C805.025 317.13 806.017 316.18 806.317 314.847L806.331 314.771L805.155 314.778L805.142 314.819C804.868 315.64 804.239 316.077 803.248 316.077C801.936 316.077 801.088 314.99 801.088 313.295V313.281C801.088 311.62 801.922 310.554 803.248 310.554C804.308 310.554 804.964 311.142 805.148 311.866L805.155 311.887H806.338L806.331 311.846C806.112 310.533 805.039 309.501 803.248 309.501C801.184 309.501 799.871 310.991 799.871 313.281V313.295C799.871 315.633 801.19 317.13 803.255 317.13ZM810.829 317.055C811.062 317.055 811.287 317.027 811.52 316.986V315.975C811.301 315.995 811.185 316.002 810.973 316.002C810.207 316.002 809.906 315.653 809.906 314.785V310.615H811.52V309.631H809.906V307.724H808.676V309.631H807.514V310.615H808.676V315.086C808.676 316.494 809.312 317.055 810.829 317.055ZM813.926 308.209C814.377 308.209 814.746 307.84 814.746 307.389C814.746 306.938 814.377 306.568 813.926 306.568C813.475 306.568 813.105 306.938 813.105 307.389C813.105 307.84 813.475 308.209 813.926 308.209ZM813.324 317H814.514V309.631H813.324V317ZM819.784 317.13C821.883 317.13 823.182 315.681 823.182 313.322V313.309C823.182 310.943 821.883 309.501 819.784 309.501C817.686 309.501 816.387 310.943 816.387 313.309V313.322C816.387 315.681 817.686 317.13 819.784 317.13ZM819.784 316.077C818.39 316.077 817.604 315.059 817.604 313.322V313.309C817.604 311.565 818.39 310.554 819.784 310.554C821.179 310.554 821.965 311.565 821.965 313.309V313.322C821.965 315.059 821.179 316.077 819.784 316.077ZM825.027 317H826.217V312.639C826.217 311.347 826.962 310.554 828.138 310.554C829.313 310.554 829.86 311.189 829.86 312.516V317H831.05V312.229C831.05 310.479 830.127 309.501 828.473 309.501C827.386 309.501 826.695 309.959 826.326 310.738H826.217V309.631H825.027V317ZM840.805 317.13C842.671 317.13 843.895 315.619 843.895 313.322V313.309C843.895 310.998 842.678 309.501 840.805 309.501C839.793 309.501 838.911 310.007 838.508 310.793H838.398V306.705H837.209V317H838.398V315.824H838.508C838.959 316.645 839.779 317.13 840.805 317.13ZM840.531 316.077C839.191 316.077 838.371 315.024 838.371 313.322V313.309C838.371 311.606 839.191 310.554 840.531 310.554C841.878 310.554 842.678 311.593 842.678 313.309V313.322C842.678 315.038 841.878 316.077 840.531 316.077ZM848.208 317.13C849.288 317.13 850.033 316.686 850.396 315.899H850.505V317H851.694V309.631H850.505V313.992C850.505 315.284 849.814 316.077 848.516 316.077C847.34 316.077 846.861 315.441 846.861 314.115V309.631H845.672V314.402C845.672 316.146 846.533 317.13 848.208 317.13ZM853.916 317H855.105V312.639C855.105 311.347 855.851 310.554 857.026 310.554C858.202 310.554 858.749 311.189 858.749 312.516V317H859.938V312.229C859.938 310.479 859.016 309.501 857.361 309.501C856.274 309.501 855.584 309.959 855.215 310.738H855.105V309.631H853.916V317ZM864.812 317.13C865.838 317.13 866.658 316.645 867.109 315.824H867.219V317H868.408V306.705H867.219V310.793H867.109C866.706 310.007 865.824 309.501 864.812 309.501C862.939 309.501 861.723 310.998 861.723 313.309V313.322C861.723 315.619 862.946 317.13 864.812 317.13ZM865.086 316.077C863.739 316.077 862.939 315.038 862.939 313.322V313.309C862.939 311.593 863.739 310.554 865.086 310.554C866.426 310.554 867.246 311.606 867.246 313.309V313.322C867.246 315.024 866.426 316.077 865.086 316.077ZM870.76 317H871.949V306.705H870.76V317ZM877.24 317.13C878.977 317.13 880.029 316.146 880.282 315.147L880.296 315.093H879.106L879.079 315.154C878.881 315.599 878.266 316.07 877.268 316.07C875.955 316.07 875.114 315.182 875.08 313.657H880.385V313.192C880.385 310.991 879.168 309.501 877.165 309.501C875.162 309.501 873.863 311.06 873.863 313.336V313.343C873.863 315.653 875.135 317.13 877.24 317.13ZM877.158 310.561C878.245 310.561 879.052 311.251 879.175 312.707H875.101C875.23 311.306 876.064 310.561 877.158 310.561Z" fill="#888888"/>
<path d="M369 150C369 149.448 368.552 149 368 149C367.448 149 367 149.448 367 150H369ZM367.293 222.707C367.683 223.098 368.317 223.098 368.707 222.707L375.071 216.343C375.462 215.953 375.462 215.319 375.071 214.929C374.681 214.538 374.047 214.538 373.657 214.929L368 220.586L362.343 214.929C361.953 214.538 361.319 214.538 360.929 214.929C360.538 215.319 360.538 215.953 360.929 216.343L367.293 222.707ZM367 150V222H369V150H367Z" fill="#EB6961"/>
<defs>
<filter id="filter0_d_23_719" x="59" y="36" width="170" height="46" filterUnits="userSpaceOnUse" color-interpolation-filters="sRGB">
<feFlood flood-opacity="0" result="BackgroundImageFix"/>
<feColorMatrix in="SourceAlpha" type="matrix" values="0 0 0 0 0 0 0 0 0 0 0 0 0 0 0 0 0 0 127 0" result="hardAlpha"/>
<feOffset dy="1"/>
<feGaussianBlur stdDeviation="2"/>
<feComposite in2="hardAlpha" operator="out"/>
<feColorMatrix type="matrix" values="0 0 0 0 0 0 0 0 0 0 0 0 0 0 0 0 0 0 0.15 0"/>
<feBlend mode="normal" in2="BackgroundImageFix" result="effect1_dropShadow_23_719"/>
<feBlend mode="normal" in="SourceGraphic" in2="effect1_dropShadow_23_719" result="shape"/>
</filter>
<filter id="filter1_d_23_719" x="59" y="96" width="170" height="46" filterUnits="userSpaceOnUse" color-interpolation-filters="sRGB">
<feFlood flood-opacity="0" result="BackgroundImageFix"/>
<feColorMatrix in="SourceAlpha" type="matrix" values="0 0 0 0 0 0 0 0 0 0 0 0 0 0 0 0 0 0 127 0" result="hardAlpha"/>
<feOffset dy="1"/>
<feGaussianBlur stdDeviation="2"/>
<feComposite in2="hardAlpha" operator="out"/>
<feColorMatrix type="matrix" values="0 0 0 0 0 0 0 0 0 0 0 0 0 0 0 0 0 0 0.15 0"/>
<feBlend mode="normal" in2="BackgroundImageFix" result="effect1_dropShadow_23_719"/>
<feBlend mode="normal" in="SourceGraphic" in2="effect1_dropShadow_23_719" result="shape"/>
</filter>
<filter id="filter2_d_23_719" x="59" y="156" width="170" height="46" filterUnits="userSpaceOnUse" color-interpolation-filters="sRGB">
<feFlood flood-opacity="0" result="BackgroundImageFix"/>
<feColorMatrix in="SourceAlpha" type="matrix" values="0 0 0 0 0 0 0 0 0 0 0 0 0 0 0 0 0 0 127 0" result="hardAlpha"/>
<feOffset dy="1"/>
<feGaussianBlur stdDeviation="2"/>
<feComposite in2="hardAlpha" operator="out"/>
<feColorMatrix type="matrix" values="0 0 0 0 0 0 0 0 0 0 0 0 0 0 0 0 0 0 0.15 0"/>
<feBlend mode="normal" in2="BackgroundImageFix" result="effect1_dropShadow_23_719"/>
<feBlend mode="normal" in="SourceGraphic" in2="effect1_dropShadow_23_719" result="shape"/>
</filter>
<filter id="filter3_d_23_719" x="283" y="86" width="170" height="66" filterUnits="userSpaceOnUse" color-interpolation-filters="sRGB">
<feFlood flood-opacity="0" result="BackgroundImageFix"/>
<feColorMatrix in="SourceAlpha" type="matrix" values="0 0 0 0 0 0 0 0 0 0 0 0 0 0 0 0 0 0 127 0" result="hardAlpha"/>
<feOffset dy="1"/>
<feGaussianBlur stdDeviation="2"/>
<feComposite in2="hardAlpha" operator="out"/>
<feColorMatrix type="matrix" values="0 0 0 0 0 0 0 0 0 0 0 0 0 0 0 0 0 0 0.15 0"/>
<feBlend mode="normal" in2="BackgroundImageFix" result="effect1_dropShadow_23_719"/>
<feBlend mode="normal" in="SourceGraphic" in2="effect1_dropShadow_23_719" result="shape"/>
</filter>
<filter id="filter4_d_23_719" x="283" y="222" width="170" height="46" filterUnits="userSpaceOnUse" color-interpolation-filters="sRGB">
<feFlood flood-opacity="0" result="BackgroundImageFix"/>
<feColorMatrix in="SourceAlpha" type="matrix" values="0 0 0 0 0 0 0 0 0 0 0 0 0 0 0 0 0 0 127 0" result="hardAlpha"/>
<feOffset dy="1"/>
<feGaussianBlur stdDeviation="2"/>
<feComposite in2="hardAlpha" operator="out"/>
<feColorMatrix type="matrix" values="0 0 0 0 0 0 0 0 0 0 0 0 0 0 0 0 0 0 0.15 0"/>
<feBlend mode="normal" in2="BackgroundImageFix" result="effect1_dropShadow_23_719"/>
<feBlend mode="normal" in="SourceGraphic" in2="effect1_dropShadow_23_719" result="shape"/>
</filter>
<filter id="filter5_d_23_719" x="507" y="222" width="170" height="46" filterUnits="userSpaceOnUse" color-interpolation-filters="sRGB">
<feFlood flood-opacity="0" result="BackgroundImageFix"/>
<feColorMatrix in="SourceAlpha" type="matrix" values="0 0 0 0 0 0 0 0 0 0 0 0 0 0 0 0 0 0 127 0" result="hardAlpha"/>
<feOffset dy="1"/>
<feGaussianBlur stdDeviation="2"/>
<feComposite in2="hardAlpha" operator="out"/>
<feColorMatrix type="matrix" values="0 0 0 0 0 0 0 0 0 0 0 0 0 0 0 0 0 0 0.15 0"/>
<feBlend mode="normal" in2="BackgroundImageFix" result="effect1_dropShadow_23_719"/>
<feBlend mode="normal" in="SourceGraphic" in2="effect1_dropShadow_23_719" result="shape"/>
</filter>
<filter id="filter6_d_23_719" x="507" y="96" width="170" height="46" filterUnits="userSpaceOnUse" color-interpolation-filters="sRGB">
<feFlood flood-opacity="0" result="BackgroundImageFix"/>
<feColorMatrix in="SourceAlpha" type="matrix" values="0 0 0 0 0 0 0 0 0 0 0 0 0 0 0 0 0 0 127 0" result="hardAlpha"/>
<feOffset dy="1"/>
<feGaussianBlur stdDeviation="2"/>
<feComposite in2="hardAlpha" operator="out"/>
<feColorMatrix type="matrix" values="0 0 0 0 0 0 0 0 0 0 0 0 0 0 0 0 0 0 0.15 0"/>
<feBlend mode="normal" in2="BackgroundImageFix" result="effect1_dropShadow_23_719"/>
<feBlend mode="normal" in="SourceGraphic" in2="effect1_dropShadow_23_719" result="shape"/>
</filter>
<filter id="filter7_d_23_719" x="731" y="96" width="170" height="46" filterUnits="userSpaceOnUse" color-interpolation-filters="sRGB">
<feFlood flood-opacity="0" result="BackgroundImageFix"/>
<feColorMatrix in="SourceAlpha" type="matrix" values="0 0 0 0 0 0 0 0 0 0 0 0 0 0 0 0 0 0 127 0" result="hardAlpha"/>
<feOffset dy="1"/>
<feGaussianBlur stdDeviation="2"/>
<feComposite in2="hardAlpha" operator="out"/>
<feColorMatrix type="matrix" values="0 0 0 0 0 0 0 0 0 0 0 0 0 0 0 0 0 0 0.15 0"/>
<feBlend mode="normal" in2="BackgroundImageFix" result="effect1_dropShadow_23_719"/>
<feBlend mode="normal" in="SourceGraphic" in2="effect1_dropShadow_23_719" result="shape"/>
</filter>
</defs>
</svg>
